<?xml version="1.0" encoding="utf-8"?>
<!-- Generator: Adobe Illustrator 17.0.0, SVG Export Plug-In . SVG Version: 6.00 Build 0)  -->
<!DOCTYPE svg PUBLIC "-//W3C//DTD SVG 1.1//EN" "http://www.w3.org/Graphics/SVG/1.1/DTD/svg11.dtd">
<svg version="1.1" id="图层_1" xmlns="http://www.w3.org/2000/svg" xmlns:xlink="http://www.w3.org/1999/xlink" x="0px" y="0px"
	 width="200px" height="200px" viewBox="0 0 200 200" enable-background="new 0 0 200 200" xml:space="preserve">
<g>
	<g>
		<path fill-rule="evenodd" clip-rule="evenodd" fill="#004DA0" d="M149.909,130.012c-2.021,0.588-3.609,0.706-6.208,0.706
			c-5.738,0-10.841-4.143-9.02-12.083c1.681-7.305,6.988-9.624,13.83-9.624c2.079,0,4.489,0.317,5.926,1.02l-1.162,4.592
			c-1.243-0.877-3.082-1.39-4.969-1.39c-4.074,0-6.949,1.711-7.848,5.621c-0.949,4.12,0.959,7.573,5.155,7.573
			c2.429,0,3.752-0.284,5.399-0.837L149.909,130.012z M176.572,129.972c1.713,0.499,3.893,0.746,5.719,0.746
			c4.779,0,9.807-1.471,11.059-6.914c1.742-7.579-8.968-5.291-8.183-8.688c0.42-1.836,2.854-1.954,4.305-1.954
			c1.559,0,3.086,0.27,4.374,0.87l1.021-4.413c-1.304-0.382-3.032-0.608-4.844-0.608c-4.319,0-9.698,1.38-10.858,6.435
			c-1.756,7.639,8.993,5.169,8.092,9.079c-0.383,1.688-2.195,2.045-4.017,2.045c-2.351,0-4.266-0.594-5.569-1.36L176.572,129.972z
			 M153.7,130.358h5.739l2.066-8.989h6.784l-2.063,8.989h5.74l4.82-20.985h-5.737l-1.846,8.027h-6.786l1.842-8.027h-5.737
			L153.7,130.358z M133.021,109.373h-5.737l-2.78,12.087c-0.637,2.763-1.945,5.112-4.878,5.112c-2.931,0-3.163-2.349-2.527-5.112
			l2.779-12.087h-5.74l-2.993,13.019c-1.318,5.745,1.915,8.327,7.529,8.327c5.616,0,10.038-2.582,11.354-8.327L133.021,109.373z
			 M90.978,130.358h5.739l1.944-8.446h8.297l0.915-3.971h-8.3l1.057-4.603h8.67l0.911-3.965H95.799L90.978,130.358z"/>
		<path fill="#004DA0" d="M36.051,131.913c1.609,0,3.041-0.858,3.041-2.598c0-1.796-1.825-1.866-3.155-1.866h-1.216l-1.526,7.194
			h1.444l0.578-2.729H36.051z M36.381,128.582c0.619,0,1.204,0.156,1.204,0.887c0,0.898-0.813,1.31-1.606,1.31h-0.518l0.465-2.197
			H36.381z M39.612,134.642l1.516-7.194h4.236l-0.215,1.134h-2.814l-0.372,1.772h2.515l-0.227,1.134h-2.524l-0.422,2.021h2.845
			l-0.248,1.134H39.612z M50.138,127.323c-1.173,0-2.174,0.442-2.958,1.34c-0.732,0.857-1.134,1.97-1.134,3.114
			c0,1.713,1.063,2.989,2.835,2.989c1.207,0,2.298-0.371,3.05-1.204c0.773-0.868,1.208-2.011,1.208-3.188
			C53.139,128.457,52.088,127.323,50.138,127.323z M50.097,128.457c1.04,0,1.537,0.803,1.537,1.766c0,1.434-0.919,3.407-2.568,3.407
			c-1.041,0-1.515-0.83-1.515-1.772C47.552,130.407,48.417,128.457,50.097,128.457z M56.913,131.913
			c1.608,0,3.041-0.858,3.041-2.598c0-1.796-1.825-1.866-3.154-1.866h-1.218l-1.526,7.194h1.445l0.577-2.729H56.913z
			 M57.242,128.582c0.619,0,1.208,0.156,1.208,0.887c0,0.898-0.816,1.31-1.61,1.31h-0.515l0.465-2.197H57.242z M60.36,134.642
			l1.525-7.194h1.443l-1.287,6.06h2.824l-0.248,1.134H60.36z M66.082,134.642l1.515-7.194h4.236l-0.217,1.134h-2.812l-0.372,1.772
			h2.516l-0.228,1.134h-2.524l-0.424,2.021h2.847l-0.248,1.134H66.082z M72.41,134.642l0.3-1.44h1.442l-0.3,1.44H72.41z
			 M5.132,117.397l0.247-1.137h5.559l-0.239,1.137H8.667l-1.309,6.06H5.852l1.31-6.06H5.132z M15.132,123.457l0.249-1.134h-2.848
			l0.425-2.021h2.526l0.226-1.134h-2.515l0.371-1.772h2.813l0.218-1.137h-4.235l-1.517,7.197H15.132z M23.54,116.49
			c-0.631-0.256-1.393-0.351-2.116-0.351c-2.547,0-4.123,1.711-4.123,4.032c0,1.948,1.041,3.408,3.215,3.408
			c0.547,0,1.103-0.051,1.631-0.192l0.226-1.384c-0.412,0.247-0.908,0.446-1.515,0.446c-1.269,0-2.051-1.073-2.051-2.278
			c0-1.694,1.123-2.898,2.719-2.898c0.774,0,1.322,0.196,1.651,0.422L23.54,116.49z M25.207,123.457l0.662-3.155h2.904l-0.657,3.155
			h1.442l1.507-7.197H29.62l-0.609,2.909h-2.905l0.608-2.909H25.27l-1.506,7.197H25.207z M33.093,123.457l1.143-5.513h0.021
			l1.504,5.513h1.857l1.555-7.197h-1.36l-1.175,5.466h-0.022l-1.535-5.466h-1.824l-1.547,7.197H33.093z M47.202,119.188
			c0,1.177-0.434,2.322-1.205,3.188c-0.753,0.834-1.846,1.202-3.052,1.202c-1.772,0-2.835-1.276-2.835-2.987
			c0-1.147,0.403-2.26,1.136-3.111c0.781-0.9,1.781-1.343,2.955-1.343C46.151,116.138,47.202,117.272,47.202,119.188z
			 M41.615,120.673c0,0.938,0.474,1.775,1.515,1.775c1.651,0,2.565-1.981,2.565-3.416c0-0.957-0.492-1.761-1.535-1.761
			C42.48,117.272,41.615,119.219,41.615,120.673z M52.405,123.457l0.247-1.134h-2.824l1.288-6.064h-1.442l-1.526,7.197H52.405z
			 M60.786,119.188c0,1.177-0.43,2.322-1.205,3.188c-0.752,0.834-1.846,1.202-3.05,1.202c-1.775,0-2.835-1.276-2.835-2.987
			c0-1.147,0.4-2.26,1.133-3.111c0.785-0.9,1.784-1.343,2.961-1.343C59.736,116.138,60.786,117.272,60.786,119.188z M55.198,120.673
			c0,0.938,0.475,1.775,1.518,1.775c1.648,0,2.565-1.981,2.565-3.416c0-0.957-0.493-1.761-1.536-1.761
			C56.065,117.272,55.198,119.219,55.198,120.673z M68.797,116.539c-0.753-0.289-1.598-0.401-2.402-0.401
			c-2.598,0-4.319,1.62-4.319,4.248c0,2.227,1.412,3.192,3.526,3.192c0.7,0,1.503-0.142,1.926-0.317l0.825-3.927h-2.919
			l-0.236,1.134h1.525l-0.402,1.909c-0.163,0.072-0.38,0.072-0.712,0.072c-1.225,0-2.029-0.938-2.029-2.106
			c0-1.698,1.102-3.071,2.857-3.071c0.752,0,1.442,0.156,1.999,0.516L68.797,116.539z M72.322,123.457l0.629-2.979l3.484-4.218
			h-1.681l-2.339,3.023l-1.073-3.023h-1.526l1.691,4.218l-0.628,2.979H72.322z M76.936,123.457l0.296-1.445h-1.443l-0.299,1.445
			H76.936z M12.711,112.278l1.525-7.193h1.445l-1.29,6.06h2.825l-0.248,1.134H12.711z M18.722,108.989
			c-0.425,2.051,0.154,3.411,2.504,3.411c2,0,2.864-1.124,3.277-2.966l0.96-4.349H24.04l-0.784,3.648
			c-0.256,1.184-0.536,2.533-2.021,2.533c-1.598,0-1.215-1.761-0.978-2.77l0.73-3.411h-1.442L18.722,108.989z M25.998,112.278
			l1.507-7.193h2.133c1.124,0,2.176,0.412,2.176,1.721c0,0.874-0.701,1.576-1.537,1.707v0.024c0.806,0.121,1.154,0.742,1.154,1.514
			c0,2.062-2.31,2.227-3.383,2.227H25.998z M28.048,109.063l-0.431,2.082h0.496c0.886,0,1.876-0.105,1.876-1.218
			c0-0.753-0.701-0.864-1.474-0.864H28.048z M28.659,106.218l-0.383,1.772h0.569c0.73,0,1.525-0.207,1.525-1.05
			c0-0.691-0.661-0.722-1.207-0.722H28.659z M32.732,112.278l1.504-7.193h1.701c1.329,0,2.864-0.023,2.864,1.7
			c0,1.236-0.927,1.897-2.102,1.917v0.019c0.391,0.021,0.642,0.267,0.733,0.662l0.69,2.894h-1.515l-0.352-1.69
			c-0.163-0.763-0.121-1.299-0.904-1.299h-0.549l-0.627,2.989H32.732z M35.06,108.155h0.526c0.773,0,1.711-0.236,1.711-1.185
			c0-0.752-0.648-0.752-1.237-0.752h-0.599L35.06,108.155z M41.154,112.278l1.515-7.193h-1.506l-1.519,7.193H41.154z
			 M49.846,105.307c-0.628-0.256-1.391-0.348-2.112-0.348c-2.548,0-4.124,1.711-4.124,4.029c0,1.947,1.04,3.411,3.216,3.411
			c0.547,0,1.103-0.05,1.628-0.196l0.227-1.38c-0.413,0.247-0.908,0.442-1.515,0.442c-1.269,0-2.051-1.069-2.051-2.277
			c0-1.69,1.123-2.896,2.721-2.896c0.775,0,1.318,0.196,1.649,0.422L49.846,105.307z M54.316,106.36l-1.733,3.134h2.227
			l-0.453-3.134H54.316z M49.43,112.278l4.36-7.193h1.598l1.311,7.193h-1.445l-0.245-1.65h-3.065l-0.916,1.65H49.43z
			 M59.281,112.278l1.146-5.517h0.021l1.507,5.517h1.854l1.556-7.193h-1.361l-1.175,5.463h-0.022l-1.535-5.463h-1.824l-1.549,7.193
			H59.281z M68.548,106.218l-1.31,6.06h1.506l1.309-6.06h2.032l0.238-1.134h-5.556l-0.25,1.134H68.548z M77.604,105.276
			c-0.589-0.236-1.238-0.317-1.866-0.317c-1.383,0-2.682,0.659-2.682,2.173c0,1.92,2.455,1.711,2.455,3.014
			c0,0.773-0.678,1.12-1.371,1.12c-0.619,0-1.208-0.236-1.764-0.492l-0.371,1.225c0.651,0.239,1.362,0.401,2.051,0.401
			c1.577,0,2.959-0.638,2.959-2.402c0-1.998-2.452-1.924-2.452-3.08c0-0.617,0.691-0.824,1.204-0.824
			c0.527,0,1.073,0.156,1.495,0.372L77.604,105.276z M79.989,112.278l0.299-1.443h-1.442l-0.299,1.443H79.989z"/>
		<path fill-rule="evenodd" clip-rule="evenodd" fill="#004DA0" d="M153.237,77.891c2.879,0,6.135,0.233,8.149,1.008l-2.187,8.756
			c-2.039-0.634-5.252-1.083-8.139-1.083c-13.838,0-27.227,7.251-35.633,17.947C121.212,89.391,137.026,77.891,153.237,77.891z
			 M170.927,135.21c-8.405,10.699-21.795,17.947-35.629,17.947c-2.89,0-6.102-0.448-8.141-1.083l-2.187,8.759
			c2.015,0.773,5.269,1.006,8.147,1.006C149.328,161.839,165.144,150.339,170.927,135.21z"/>
		<path fill-rule="evenodd" clip-rule="evenodd" fill="#E50012" d="M177.272,106.758c-4.633-6.438-13.834-9.896-23.477-9.896
			c-5.61,0-10.692,1.126-15.105,3.162l2.151-9.225c2.819-0.968,6.48-1.475,9.332-1.475
			C163.429,89.323,173.659,96.575,177.272,106.758z M136.183,150.407c2.853,0,6.512-0.507,9.331-1.475l2.153-9.225
			c-4.416,2.039-9.495,3.162-15.105,3.162c-9.646,0-18.845-3.458-23.48-9.9C112.694,143.155,122.923,150.407,136.183,150.407z"/>
	</g>
	<rect x="5.379" y="38.161" fill="#004DA0" width="189.49" height="14.108"/>
</g>
</svg>
